<svg width="31" height="27" viewBox="0 0 31 27" fill="none" xmlns="http://www.w3.org/2000/svg">
<path d="M15.5 8.59091C16.9949 8.59091 18.4285 9.10812 19.4855 10.0287C20.5425 10.9494 21.1364 12.198 21.1364 13.5C21.1364 14.802 20.5425 16.0506 19.4855 16.9713C18.4285 17.8919 16.9949 18.4091 15.5 18.4091C14.0051 18.4091 12.5715 17.8919 11.5145 16.9713C10.4575 16.0506 9.86364 14.802 9.86364 13.5C9.86364 12.198 10.4575 10.9494 11.5145 10.0287C12.5715 9.10812 14.0051 8.59091 15.5 8.59091ZM2.88864 14.7273H0V12.2727H2.88864C3.52273 7.155 8.215 3.06818 14.0909 2.51591V0H16.9091V2.51591C22.785 3.06818 27.4773 7.155 28.1114 12.2727H31V14.7273H28.1114C27.4773 19.845 22.785 23.9318 16.9091 24.4841V27H14.0909V24.4841C8.215 23.9318 3.52273 19.845 2.88864 14.7273ZM15.5 4.90909C12.884 4.90909 10.3751 5.8142 8.52536 7.42531C6.67556 9.03642 5.63636 11.2215 5.63636 13.5C5.63636 15.7785 6.67556 17.9636 8.52536 19.5747C10.3751 21.1858 12.884 22.0909 15.5 22.0909C18.116 22.0909 20.6249 21.1858 22.4746 19.5747C24.3244 17.9636 25.3636 15.7785 25.3636 13.5C25.3636 11.2215 24.3244 9.03642 22.4746 7.42531C20.6249 5.8142 18.116 4.90909 15.5 4.90909Z" fill="#F30A0A"/>
</svg>
